<?xml version="1.0" encoding="UTF-8"?>
<svg version="1.1" xmlns="http://www.w3.org/2000/svg" width="500" height="500">
<path d="M0 0 C0.88225754 -0.00335861 1.76451508 -0.00671722 2.67350769 -0.01017761 C5.58329693 -0.01965519 8.49302832 -0.02162974 11.40283203 -0.02270508 C13.44100976 -0.02592204 15.47918725 -0.02928644 17.5173645 -0.03279114 C21.79266901 -0.03877599 26.06795332 -0.04063191 30.34326172 -0.04003906 C35.78067311 -0.03993797 41.21795234 -0.05353763 46.65533257 -0.07081127 C50.86966527 -0.08202138 55.08396706 -0.08395546 59.29831314 -0.08342934 C61.30025814 -0.08459795 63.30220425 -0.08895566 65.30413437 -0.0967617 C95.23579041 -0.20246348 95.23579041 -0.20246348 109.28564453 4.83276367 C110.03668457 5.09621582 110.78772461 5.35966797 111.56152344 5.63110352 C125.70307329 10.78533028 138.29109638 19.45159601 145.53564453 32.95776367 C150.06023169 43.15476836 152.64004107 53.99956608 153.03564453 65.14526367 C153.07560547 65.93932617 153.11556641 66.73338867 153.15673828 67.55151367 C153.65867386 85.73929702 148.77932474 102.82624741 136.41064453 116.39526367 C128.82486038 123.54001386 119.3708974 128.00208672 109.03564453 129.14526367 C109.03564453 130.46526367 109.03564453 131.78526367 109.03564453 133.14526367 C109.62990234 133.2922168 110.22416016 133.43916992 110.83642578 133.59057617 C126.00160321 137.69437224 138.52094988 146.56310445 146.53955078 160.23510742 C154.74091661 176.18815583 158.10473284 194.87553998 153.06689453 212.39135742 C149.93158175 220.76406769 144.98320986 226.10676142 137.03564453 230.14526367 C127.53315093 234.45567314 116.06794276 234.77169018 106.16064453 231.64526367 C96.90171996 227.68304929 91.30576769 221.35501824 87.18017578 212.27416992 C85.35816616 207.29318117 84.61304132 202.39957449 84.03564453 197.14526367 C82.39098234 182.57603915 80.40050886 167.54076188 68.22314453 157.83276367 C66.84948026 156.90329364 65.4534148 156.00595847 64.03564453 155.14526367 C63.41560547 154.7662793 62.79556641 154.38729492 62.15673828 153.99682617 C54.14980635 149.82883421 46.27605092 149.6853314 37.03564453 148.14526367 C37.69564453 135.60526367 38.35564453 123.06526367 39.03564453 110.14526367 C42.02369141 110.13108398 45.01173828 110.1169043 48.09033203 110.10229492 C51.01296957 110.07160279 53.93538489 110.03253269 56.85791016 109.99267578 C58.8750817 109.96960672 60.8923718 109.95512634 62.90966797 109.94970703 C78.40949983 110.46870822 78.40949983 110.46870822 92.03564453 104.14526367 C97.36365749 97.67546856 97.6468788 90.1691026 97.03564453 82.14526367 C95.83242146 76.51759042 93.55107383 72.8206131 89.03564453 69.14526367 C82.28765716 65.0377931 75.1767261 64.98866004 67.50439453 64.97729492 C66.31227356 64.97230232 66.31227356 64.97230232 65.09606934 64.96720886 C63.42538019 64.96217432 61.7546811 64.95979946 60.08398438 64.95996094 C57.54296219 64.95776998 55.00237164 64.93956526 52.46142578 64.9206543 C50.82991683 64.91772043 49.19840585 64.91573559 47.56689453 64.91479492 C46.81565308 64.90760941 46.06441162 64.90042389 45.29040527 64.89302063 C40.50890799 64.91351947 36.5777757 65.63632823 32.03564453 67.14526367 C31.83519531 66.61271973 31.63474609 66.08017578 31.42822266 65.53149414 C21.00028851 38.06062681 7.67427758 18.3871282 -17.96435547 3.14526367 C-12.50242961 -0.49602024 -6.35285831 -0.00349859 0 0 Z " fill="#FFFFFF" transform="translate(257.96435546875,154.854736328125)"/>
<path d="M0 0 C0.71816895 -0.00511093 1.43633789 -0.01022186 2.17626953 -0.01548767 C4.54264777 -0.029341 6.90873255 -0.0284272 9.27514648 -0.02612305 C10.94262294 -0.03001815 12.61009841 -0.03435447 14.27757263 -0.03910828 C17.77866824 -0.04656572 21.27966307 -0.04628694 24.78076172 -0.04101562 C28.33102187 -0.0364158 31.88093705 -0.04317756 35.43115234 -0.06152344 C72.93793824 -0.25368712 107.52336598 0.89338165 135.98217773 28.6105957 C160.66738125 54.64379669 165.51154317 91.53739623 164.7199707 125.8503418 C163.69850393 151.52613551 159.27267894 179.74516875 142.58374023 200.2746582 C141.90569336 201.11512695 141.22764648 201.9555957 140.52905273 202.8215332 C125.06326309 220.98420432 101.93830535 230.03553602 78.58374023 232.2746582 C14.95673956 237.26221705 14.95673956 237.26221705 -6.42797852 219.08325195 C-7.41217773 218.18799805 -7.41217773 218.18799805 -8.41625977 217.2746582 C-9.04145508 216.72938477 -9.66665039 216.18411133 -10.31079102 215.62231445 C-21.16308996 205.57388951 -26.3925124 190.65267726 -28.41625977 176.2746582 C-28.52711914 175.49735352 -28.63797852 174.72004883 -28.75219727 173.91918945 C-32.02912902 145.35674376 -28.56829941 113.74948603 -10.25610352 90.53637695 C-6.24754321 85.89524796 -2.08289235 81.93187357 2.95483398 78.4309082 C4.73273111 77.23720951 4.73273111 77.23720951 6.58374023 75.2746582 C6.26522253 73.16645024 6.26522253 73.16645024 5.58374023 71.2746582 C4.52155273 71.17668945 3.45936523 71.0787207 2.36499023 70.9777832 C-5.3204621 70.19461026 -11.78457019 69.52894963 -18.41625977 65.2746582 C-19.30313477 64.7177832 -20.19000977 64.1609082 -21.10375977 63.5871582 C-28.79384796 55.89707001 -31.54652751 45.35134792 -31.79125977 34.7746582 C-31.54513756 24.58109668 -29.28226991 16.04721947 -22.41625977 8.2746582 C-15.53668632 2.51702236 -9.00677695 0.03213808 0 0 Z M34.58374023 66.2746582 C31.35124535 70.48107529 31.15409277 74.2592286 31.19555664 79.38208008 C31.19029968 80.1843251 31.18504272 80.98657013 31.17962646 81.81312561 C31.16645626 84.45675302 31.17515384 87.099775 31.18530273 89.7434082 C31.18328114 91.58516556 31.18036899 93.42692214 31.17660522 95.26867676 C31.17218591 99.12540318 31.17860029 102.98192091 31.19262695 106.83862305 C31.2097186 111.77841555 31.19987532 116.71771903 31.18190956 121.65749359 C31.17106112 125.45965245 31.17452294 129.26169566 31.18229294 133.06385803 C31.18429201 134.88509682 31.18184596 136.70634616 31.17485428 138.52757263 C31.16722233 141.0744095 31.17886809 143.62045806 31.19555664 146.16723633 C31.18948395 146.91751602 31.18341125 147.66779572 31.17715454 148.44081116 C31.231159 152.89691858 31.84946152 155.72610175 34.58374023 159.2746582 C38.13000829 161.98529224 40.69635173 162.65189308 45.11889648 162.63793945 C46.17657227 162.63729492 47.23424805 162.63665039 48.32397461 162.63598633 C49.42032227 162.61987305 50.51666992 162.60375977 51.64624023 162.5871582 C53.25015625 162.59199219 53.25015625 162.59199219 54.88647461 162.59692383 C68.32996857 162.5075713 80.6921753 161.02830239 90.89624023 151.5871582 C101.86297822 139.7138955 103.36595398 123.75074898 102.93920898 108.2668457 C102.22276578 94.85358055 98.19387978 82.34565195 88.99780273 72.3918457 C78.60681449 63.27871361 67.13729692 63.07627082 54.02124023 63.0246582 C52.70704102 63.0040332 51.3928418 62.9834082 50.03881836 62.9621582 C48.77360352 62.95700195 47.50838867 62.9518457 46.20483398 62.9465332 C45.05426514 62.9371875 43.90369629 62.9278418 42.71826172 62.91821289 C39.15469035 63.32344805 37.39149341 64.06173988 34.58374023 66.2746582 Z " fill="#FFFFFF" transform="translate(120.416259765625,155.725341796875)"/>
<path d="M0 0 C0.33 0 0.66 0 1 0 C1.07526343 4.05264618 1.12911541 8.1050108 1.16479492 12.15820312 C1.17969923 13.53132226 1.20002997 14.90439539 1.22631836 16.27734375 C1.45692213 28.64855799 0.9635652 41.53012463 -8 51 C-17.689556 58.43505535 -27.03311589 59.62676738 -39 59 C-41.42578125 58.48828125 -41.42578125 58.48828125 -43 58 C-43 57.34 -43 56.68 -43 56 C-41.43745395 54.93613886 -39.82140432 53.95063524 -38.1875 53 C-18.50647432 40.71197499 -7.1162922 21.65828062 0 0 Z " fill="#FFFFFF" transform="translate(289,329)"/>
</svg>
